<svg width="57" height="58" viewBox="0 0 57 58" fill="none" xmlns="http://www.w3.org/2000/svg">
<path d="M11.1421 2.18652V55.8082" stroke="#6EB6AA" stroke-width="3" stroke-miterlimit="10" stroke-linecap="round"/>
<path d="M16.8805 2.18652V55.8082" stroke="#6EB6AA" stroke-width="3" stroke-miterlimit="10" stroke-linecap="round"/>
<path d="M22.4103 2.23755V55.8592" stroke="#6EB6AA" stroke-width="3" stroke-miterlimit="10" stroke-linecap="round"/>
<path d="M28.1487 2.23755V55.8592" stroke="#6EB6AA" stroke-width="3" stroke-miterlimit="10" stroke-linecap="round"/>
<path d="M33.7867 2.23755V55.8592" stroke="#6EB6AA" stroke-width="3" stroke-miterlimit="10" stroke-linecap="round"/>
<path d="M39.3167 2.18652V55.8082" stroke="#6EB6AA" stroke-width="3" stroke-miterlimit="10" stroke-linecap="round"/>
<path d="M45.0551 2.18652V55.8082" stroke="#6EB6AA" stroke-width="3" stroke-miterlimit="10" stroke-linecap="round"/>
<path d="M54.6328 11.8154H1.71436" stroke="#6EB6AA" stroke-width="3" stroke-miterlimit="10" stroke-linecap="round"/>
<path d="M54.6328 17.6301H1.71436" stroke="#6EB6AA" stroke-width="3" stroke-miterlimit="10" stroke-linecap="round"/>
<path d="M54.5827 23.2334H1.66418" stroke="#6EB6AA" stroke-width="3" stroke-miterlimit="10" stroke-linecap="round"/>
<path d="M54.5827 29.0481H1.66418" stroke="#6EB6AA" stroke-width="3" stroke-miterlimit="10" stroke-linecap="round"/>
<path d="M54.5827 34.7612H1.66418" stroke="#6EB6AA" stroke-width="3" stroke-miterlimit="10" stroke-linecap="round"/>
<path d="M54.6328 40.3647H1.71436" stroke="#6EB6AA" stroke-width="3" stroke-miterlimit="10" stroke-linecap="round"/>
<path d="M54.6328 46.1792H1.71436" stroke="#6EB6AA" stroke-width="3" stroke-miterlimit="10" stroke-linecap="round"/>
<path d="M45.2802 50.3057H10.5175C8.53538 50.3057 6.91968 48.6769 6.91968 46.66V11.4355C6.91968 9.42697 8.52705 7.78979 10.5175 7.78979H45.2802C47.2623 7.78979 48.878 9.41853 48.878 11.4355V46.66C48.878 48.6769 47.2623 50.3057 45.2802 50.3057Z" fill="white" stroke="#6EB6AA" stroke-width="3" stroke-miterlimit="10"/>
<path d="M36.4521 41.3607H19.3457C17.3635 41.3607 15.7478 39.732 15.7478 37.715V20.3813C15.7478 18.3728 17.3552 16.7356 19.3457 16.7356H36.4521C38.4343 16.7356 40.05 18.3643 40.05 20.3813V37.715C40.05 39.7235 38.4343 41.3607 36.4521 41.3607Z" stroke="#6EB6AA" stroke-width="3" stroke-miterlimit="10"/>
</svg>
