<svg width="68" height="56" viewBox="0 0 68 56" fill="none" xmlns="http://www.w3.org/2000/svg">
<path d="M65.7691 26.5601H35.8036C35.8619 26.9736 35.9035 27.3955 35.9035 27.8259C35.9035 28.2563 35.8619 28.6783 35.8036 29.0918H65.7774C66.4687 29.0918 67.0267 28.5264 67.0267 27.8259C67.0267 27.1255 66.4603 26.5601 65.7691 26.5601Z" fill="#6EB6AA"/>
<path d="M18.1559 26.5601H1.24926C0.558001 26.5601 0 27.1255 0 27.8259C0 28.5264 0.558001 29.0918 1.24926 29.0918H18.1559C18.0976 28.6783 18.0559 28.2563 18.0559 27.8259C18.0559 27.3955 18.0976 26.9736 18.1559 26.5601Z" fill="#6EB6AA"/>
<path d="M25.7263 36.7715V54.5103C25.7263 55.2108 26.2843 55.7762 26.9756 55.7762C27.6668 55.7762 28.2248 55.2108 28.2248 54.5103V36.7715C27.8167 36.8306 27.4003 36.8728 26.9756 36.8728C26.5508 36.8728 26.1344 36.8306 25.7263 36.7715Z" fill="#6EB6AA"/>
<path d="M28.2248 18.889V1.44554C28.2248 0.745103 27.6668 0.179688 26.9756 0.179688C26.2843 0.179688 25.7263 0.745103 25.7263 1.44554V18.889C26.1344 18.83 26.5508 18.7878 26.9756 18.7878C27.4003 18.7878 27.8167 18.83 28.2248 18.889Z" fill="#6EB6AA"/>
<path d="M34.0716 22.3574L45.165 11.1166C45.6563 10.6187 45.6563 9.81699 45.165 9.32753C44.6736 8.82963 43.8824 8.82963 43.3994 9.32753L32.2893 20.5768C32.9639 21.0831 33.5635 21.6823 34.0716 22.3574Z" fill="#6EB6AA"/>
<path d="M19.8216 33.21L6.36292 46.8559C5.87154 47.3538 5.87154 48.1555 6.36292 48.645C6.60444 48.8897 6.92924 49.0163 7.24572 49.0163C7.5622 49.0163 7.88701 48.8897 8.12853 48.645L21.5789 35.0159C20.9126 34.5011 20.3213 33.8935 19.8216 33.21Z" fill="#6EB6AA"/>
<path d="M21.5789 20.6443L8.12853 7.01527C7.63716 6.51737 6.84596 6.51737 6.36292 7.01527C5.87154 7.51318 5.87154 8.31488 6.36292 8.80435L19.8216 22.4418C20.3213 21.7667 20.9126 21.1591 21.5789 20.6443Z" fill="#6EB6AA"/>
<path d="M32.2893 35.0752L43.3994 46.3328C43.6409 46.5776 43.9657 46.7042 44.2822 46.7042C44.5986 46.7042 44.9234 46.5776 45.165 46.3328C45.6563 45.8349 45.6563 45.0332 45.165 44.5438L34.0632 33.303C33.5552 33.9697 32.9639 34.5688 32.2893 35.0752Z" fill="#6EB6AA"/>
<path d="M26.9756 33.7924C30.2275 33.7924 32.8637 31.1212 32.8637 27.826C32.8637 24.5309 30.2275 21.8596 26.9756 21.8596C23.7236 21.8596 21.0874 24.5309 21.0874 27.826C21.0874 31.1212 23.7236 33.7924 26.9756 33.7924Z" fill="#6EB6AA"/>
<path d="M65.7691 29.0918H26.9756C26.2843 29.0918 25.7263 28.5264 25.7263 27.8259C25.7263 27.1255 26.2843 26.5601 26.9756 26.5601H65.7691C66.4604 26.5601 67.0184 27.1255 67.0184 27.8259C67.0184 28.5264 66.4604 29.0918 65.7691 29.0918Z" fill="#6EB6AA"/>
</svg>
