<svg width="50" height="50" viewBox="0 0 50 50" fill="none" xmlns="http://www.w3.org/2000/svg">
<path fill-rule="evenodd" clip-rule="evenodd" d="M7.32233 7.32233C12.0107 2.63392 18.3696 0 25 0C31.6304 0 37.9893 2.63392 42.6777 7.32233C47.3661 12.0107 50 18.3696 50 25C50 31.6304 47.3661 37.9893 42.6777 42.6777C37.9893 47.3661 31.6304 50 25 50C18.3696 50 12.0107 47.3661 7.32233 42.6777C2.63392 37.9893 0 31.6304 0 25C0 18.3696 2.63392 12.0107 7.32233 7.32233ZM34.8541 31.6261H28.3844V49.7446C27.2752 49.8946 26.1515 49.9998 25.0002 49.9998C23.7265 49.9998 22.4857 49.8748 21.2607 49.6906V31.6261H15.0752V25.0538H21.2607V20.6814C21.2607 13.4419 24.7884 10.2643 30.8055 10.2643C33.6364 10.2643 35.1581 10.47 35.8944 10.5696L35.9331 10.5748V16.3103H31.8291C29.2752 16.3103 28.3831 18.7314 28.3831 21.4617V25.0538H35.8699L34.8541 31.6261Z" fill="#89DACC"/>
</svg>
