<svg width="50" height="50" viewBox="0 0 50 50" fill="none" xmlns="http://www.w3.org/2000/svg">
<path fill-rule="evenodd" clip-rule="evenodd" d="M50 25C50 38.8071 38.8071 50 25 50C11.1929 50 0 38.8071 0 25C0 11.1929 11.1929 0 25 0C38.8071 0 50 11.1929 50 25ZM41.4681 18.606C41.4499 17.2379 41.1933 15.8834 40.71 14.603C40.2908 13.523 39.6506 12.5422 38.8303 11.7233C38.0099 10.9043 37.0275 10.2652 35.9457 9.8467C34.6797 9.37225 33.3423 9.11571 31.9903 9.088C30.2496 9.01032 29.6978 8.98865 25.2791 8.98865C20.8605 8.98865 20.2941 8.98865 18.5661 9.088C17.2148 9.11592 15.8779 9.37245 14.6125 9.8467C13.5306 10.2649 12.548 10.9039 11.7276 11.7229C10.9072 12.5419 10.2671 13.5229 9.84828 14.603C9.37209 15.8659 9.11568 17.2008 9.09013 18.55C9.01232 20.2896 8.9888 20.8406 8.9888 25.2519C8.9888 29.6632 8.9888 30.2268 9.09013 31.9537C9.11727 33.3049 9.3724 34.6381 9.84828 35.9044C10.2678 36.9842 10.9084 37.9647 11.7291 38.7834C12.5497 39.6021 13.5324 40.2408 14.6143 40.6589C15.8763 41.1524 17.2133 41.4273 18.5679 41.4718C20.3104 41.5494 20.8623 41.5729 25.2809 41.5729C29.6996 41.5729 30.2659 41.5729 31.9939 41.4718C33.3459 41.4452 34.6834 41.1892 35.9493 40.7149C37.0308 40.2959 38.013 39.6566 38.8333 38.8377C39.6536 38.0188 40.2939 37.0382 40.7136 35.9586C41.1895 34.6941 41.4446 33.3609 41.4717 32.0079C41.5495 30.2701 41.5731 29.7192 41.5731 25.3061L41.573 25.2453V25.2452C41.5694 20.8896 41.569 20.3268 41.4681 18.606ZM25.2683 33.5939C20.647 33.5939 16.9033 29.8565 16.9033 25.2428C16.9033 20.6292 20.647 16.8918 25.2683 16.8918C27.4868 16.8918 29.6145 17.7716 31.1832 19.3377C32.752 20.9039 33.6333 23.028 33.6333 25.2428C33.6333 27.4577 32.752 29.5818 31.1832 31.148C29.6145 32.7141 27.4868 33.5939 25.2683 33.5939ZM33.9662 18.5302C33.71 18.5304 33.4562 18.4802 33.2195 18.3824C32.9827 18.2847 32.7676 18.1412 32.5864 17.9603C32.4052 17.7795 32.2616 17.5647 32.1636 17.3283C32.0657 17.092 32.0154 16.8386 32.0156 16.5829C32.0156 16.3272 32.0661 16.0741 32.1641 15.838C32.262 15.6018 32.4056 15.3873 32.5867 15.2065C32.7677 15.0258 32.9827 14.8824 33.2192 14.7846C33.4557 14.6868 33.7093 14.6364 33.9653 14.6364C34.2213 14.6364 34.4749 14.6868 34.7114 14.7846C34.948 14.8824 35.1629 15.0258 35.3439 15.2065C35.525 15.3873 35.6686 15.6018 35.7666 15.838C35.8645 16.0741 35.915 16.3272 35.915 16.5829C35.915 17.6595 35.0428 18.5302 33.9662 18.5302ZM30.8987 25.2808C30.8987 28.3835 28.3835 30.8987 25.2808 30.8987C22.178 30.8987 19.6628 28.3835 19.6628 25.2808C19.6628 22.178 22.178 19.6628 25.2808 19.6628C28.3835 19.6628 30.8987 22.178 30.8987 25.2808Z" fill="#89DACC"/>
</svg>
