<svg width="50" height="50" viewBox="0 0 50 50" fill="none" xmlns="http://www.w3.org/2000/svg">
<path fill-rule="evenodd" clip-rule="evenodd" d="M25 50C38.8071 50 50 38.8071 50 25C50 11.1929 38.8071 0 25 0C11.1929 0 0 11.1929 0 25C0 38.8071 11.1929 50 25 50ZM16.8292 19.1638H10.9929V39.0072H16.8292V19.1638ZM13.8608 16.8293H13.8935C15.7028 16.8293 16.8292 15.5302 16.8292 13.91C16.7965 12.2537 15.7028 10.993 13.9274 10.993C12.1543 10.993 10.9929 12.2537 10.9929 13.91C10.9929 15.5313 12.1193 16.8293 13.8608 16.8293ZM33.1708 39.0072H39.0071L39.0059 27.6545C39.0059 21.7902 35.8742 19.1638 31.6977 19.1638C28.3267 19.1638 27.0088 20.9147 26.1672 22.2174V19.1638H20.331V39.0072H26.1672V28.5019C26.1672 28.4045 26.1658 28.2908 26.1642 28.1672C26.1565 27.5665 26.1457 26.7315 26.2851 26.3927C26.745 25.2511 27.6928 24.0698 29.4449 24.0698C31.7409 24.0698 33.1708 25.8207 33.1708 28.3863V39.0072Z" fill="#89DACC"/>
</svg>
