<svg width="50" height="50" viewBox="0 0 50 50" fill="none" xmlns="http://www.w3.org/2000/svg">
<path fill-rule="evenodd" clip-rule="evenodd" d="M50 25C50 38.8071 38.8071 50 25 50C11.1929 50 0 38.8071 0 25C0 11.1929 11.1929 0 25 0C38.8071 0 50 11.1929 50 25ZM9.03564 24.3989C9.03564 16.5133 14.7645 9.27002 25.5549 9.27002C34.2279 9.27002 40.9673 15.4488 40.9673 23.7094C40.9673 32.3257 35.5337 39.2594 27.9943 39.2594C25.4606 39.2594 23.0798 37.9431 22.2654 36.3882C22.2654 36.3882 21.0116 41.1613 20.7068 42.3315C20.1424 44.5023 18.6198 47.2246 17.5987 48.8844C17.0158 48.7039 16.4516 48.4828 15.8878 48.2617C15.6703 46.2845 15.4745 43.2603 15.9769 41.1075C16.4308 39.1575 18.9087 28.6806 18.9087 28.6806C18.9087 28.6806 18.1606 27.1825 18.1606 24.97C18.1606 21.4931 20.175 18.8988 22.6837 18.8988C24.8174 18.8988 25.8462 20.5008 25.8462 22.42C25.8462 23.7921 25.2886 25.5971 24.7016 27.4971C24.3705 28.5691 24.03 29.6714 23.775 30.7431C23.1857 33.2325 25.0231 35.2623 27.477 35.2623C31.9202 35.2623 35.3356 30.5767 35.3356 23.8142C35.3356 17.8287 31.0356 13.6431 24.8943 13.6431C17.7818 13.6431 13.6068 18.9787 13.6068 24.4931C13.6068 26.6412 14.4337 28.945 15.4674 30.1988C15.6712 30.4469 15.701 30.6633 15.6404 30.9152C15.5255 31.3939 15.3255 32.2066 15.1671 32.8499C15.0643 33.2676 14.9791 33.6138 14.9462 33.7508C14.8376 34.2094 14.5837 34.3047 14.1106 34.0844C10.9875 32.6306 9.03564 28.0662 9.03564 24.3989Z" fill="#89DACC"/>
</svg>
