<svg width="50" height="50" viewBox="0 0 50 50" fill="none" xmlns="http://www.w3.org/2000/svg">
<path fill-rule="evenodd" clip-rule="evenodd" d="M25 50C38.8071 50 50 38.8071 50 25C50 11.1929 38.8071 0 25 0C11.1929 0 0 11.1929 0 25C0 38.8071 11.1929 50 25 50ZM38.6441 15.4756C40.1331 15.2933 41.5447 14.9081 42.8571 14.3308C41.878 15.785 40.638 17.0579 39.1996 18.0667C39.2145 18.3741 39.2244 18.6855 39.2244 18.9978C39.2244 28.5328 31.852 39.5239 18.376 39.5239C14.2404 39.5239 10.3876 38.3278 7.14279 36.2874C7.71616 36.3564 8.29646 36.3899 8.88967 36.3899C12.3239 36.3899 15.4824 35.2332 17.9901 33.3022C14.785 33.2401 12.0799 31.1505 11.1474 28.2914C11.5938 28.3712 12.0551 28.4244 12.5283 28.4244C13.1949 28.4244 13.8416 28.3318 14.4537 28.1653C11.1048 27.5022 8.57819 24.5889 8.57819 21.0904V21.0057C9.56818 21.5377 10.699 21.8697 11.9003 21.9061C9.93224 20.6076 8.64167 18.4037 8.64167 15.9002C8.64167 14.583 8.99879 13.3347 9.63366 12.2687C13.2465 16.6313 18.6468 19.5061 24.7356 19.8096C24.6106 19.2766 24.5441 18.7278 24.5441 18.1643C24.5441 14.182 27.8246 10.9525 31.8719 10.9525C33.9789 10.9525 35.8805 11.8234 37.2137 13.2273C38.8832 12.9081 40.4525 12.3022 41.8691 11.4776C41.3225 13.1594 40.1579 14.583 38.6441 15.4756Z" fill="#89DACC"/>
</svg>
