<svg width="50" height="50" viewBox="0 0 50 50" fill="none" xmlns="http://www.w3.org/2000/svg">
<path fill-rule="evenodd" clip-rule="evenodd" d="M50 25C50 38.8071 38.8071 50 25 50C11.1929 50 0 38.8071 0 25C0 11.1929 11.1929 0 25 0C38.8071 0 50 11.1929 50 25ZM42.0491 33.4525C41.6939 35.2455 40.1844 36.6116 38.3196 36.8678C35.3893 37.2947 30.5054 37.807 24.9999 37.807C19.5833 37.807 14.6994 37.2947 11.6803 36.8678C9.81553 36.6116 8.30596 35.2455 7.95077 33.4525C7.59558 31.4887 7.24039 28.5857 7.24039 24.9996C7.24039 21.4136 7.59558 18.5105 7.95077 16.5467C8.30596 14.7537 9.81553 13.3876 11.6803 13.1314C14.6106 12.7045 19.4945 12.1922 24.9999 12.1922C30.5054 12.1922 35.3005 12.7045 38.3196 13.1314C40.1844 13.3876 41.6939 14.7537 42.0491 16.5467C42.4043 18.5105 42.8483 21.4136 42.8483 24.9996C42.7595 28.5857 42.4043 31.4887 42.0491 33.4525ZM32.1038 24.9996L21.448 19.0228V30.9764L32.1038 24.9996Z" fill="#89DACC"/>
</svg>
