<svg width="157" height="22" viewBox="0 0 157 22" fill="none" xmlns="http://www.w3.org/2000/svg">
<path d="M11.4765 0.782013L14.0531 7.84246H22.3913L15.6456 12.2061L18.2222 19.2665L11.4765 14.9029L4.73079 19.2665L7.30743 12.2061L0.561701 7.84246H8.89987L11.4765 0.782013Z" fill="#8A4DAA"/>
<path d="M34.4294 0.782013L37.006 7.84246H45.3442L38.5985 12.2061L41.1751 19.2665L34.4294 14.9029L27.6837 19.2665L30.2603 12.2061L23.5146 7.84246H31.8528L34.4294 0.782013Z" fill="#8A4DAA"/>
<path d="M57 0.782013L59.4907 7.84246H67.551L61.0301 12.2061L63.5208 19.2665L57 14.9029L50.4791 19.2665L52.9699 12.2061L46.449 7.84246H54.5092L57 0.782013Z" fill="#8A4DAA"/>
<path d="M79.5703 0.782013L82.1469 7.84246H90.4851L83.7393 12.2061L86.316 19.2665L79.5703 14.9029L72.8245 19.2665L75.4012 12.2061L68.6555 7.84246H76.9936L79.5703 0.782013Z" fill="#8A4DAA"/>
<path d="M102.524 0.782013L105.1 7.84246H113.438L106.693 12.2061L109.269 19.2665L102.524 14.9029L95.7778 19.2665L98.3544 12.2061L91.6087 7.84246H99.9469L102.524 0.782013Z" fill="#8A4DAA"/>
<path d="M119.641 12.6172C119.641 11.7422 119.724 10.888 119.891 10.0547C120.062 9.22135 120.323 8.42708 120.672 7.67188C121.021 6.91667 121.461 6.21875 121.992 5.57812H123.594C122.849 6.57292 122.286 7.67448 121.906 8.88281C121.531 10.0911 121.344 11.3307 121.344 12.6016C121.344 13.4297 121.427 14.25 121.594 15.0625C121.76 15.875 122.01 16.6562 122.344 17.4062C122.677 18.1615 123.089 18.8698 123.578 19.5312H121.992C121.461 18.9062 121.021 18.224 120.672 17.4844C120.323 16.7448 120.062 15.9635 119.891 15.1406C119.724 14.3177 119.641 13.4766 119.641 12.6172ZM130.195 17H128.352V9.64844C128.352 9.40365 128.354 9.15885 128.359 8.91406C128.365 8.66927 128.37 8.42969 128.375 8.19531C128.385 7.96094 128.398 7.73698 128.414 7.52344C128.305 7.64323 128.169 7.77344 128.008 7.91406C127.852 8.05469 127.685 8.20052 127.508 8.35156L126.195 9.39844L125.273 8.23438L128.664 5.57812H130.195V17ZM141.688 11.2812C141.688 12.2031 141.615 13.0286 141.469 13.7578C141.328 14.4818 141.104 15.0964 140.797 15.6016C140.49 16.1068 140.089 16.4922 139.594 16.7578C139.099 17.0234 138.5 17.1562 137.797 17.1562C136.917 17.1562 136.19 16.9245 135.617 16.4609C135.044 15.9922 134.62 15.3203 134.344 14.4453C134.068 13.5651 133.93 12.5104 133.93 11.2812C133.93 10.0521 134.055 9 134.305 8.125C134.56 7.24479 134.971 6.57031 135.539 6.10156C136.107 5.63281 136.859 5.39844 137.797 5.39844C138.682 5.39844 139.411 5.63281 139.984 6.10156C140.562 6.5651 140.99 7.23698 141.266 8.11719C141.547 8.99219 141.688 10.0469 141.688 11.2812ZM135.781 11.2812C135.781 12.2448 135.844 13.0495 135.969 13.6953C136.099 14.3411 136.312 14.8255 136.609 15.1484C136.906 15.4661 137.302 15.625 137.797 15.625C138.292 15.625 138.688 15.4661 138.984 15.1484C139.281 14.8307 139.495 14.349 139.625 13.7031C139.76 13.0573 139.828 12.25 139.828 11.2812C139.828 10.3229 139.763 9.52083 139.633 8.875C139.503 8.22917 139.289 7.74479 138.992 7.42188C138.695 7.09375 138.297 6.92969 137.797 6.92969C137.297 6.92969 136.898 7.09375 136.602 7.42188C136.31 7.74479 136.099 8.22917 135.969 8.875C135.844 9.52083 135.781 10.3229 135.781 11.2812ZM150.844 11.2812C150.844 12.2031 150.771 13.0286 150.625 13.7578C150.484 14.4818 150.26 15.0964 149.953 15.6016C149.646 16.1068 149.245 16.4922 148.75 16.7578C148.255 17.0234 147.656 17.1562 146.953 17.1562C146.073 17.1562 145.346 16.9245 144.773 16.4609C144.201 15.9922 143.776 15.3203 143.5 14.4453C143.224 13.5651 143.086 12.5104 143.086 11.2812C143.086 10.0521 143.211 9 143.461 8.125C143.716 7.24479 144.128 6.57031 144.695 6.10156C145.263 5.63281 146.016 5.39844 146.953 5.39844C147.839 5.39844 148.568 5.63281 149.141 6.10156C149.719 6.5651 150.146 7.23698 150.422 8.11719C150.703 8.99219 150.844 10.0469 150.844 11.2812ZM144.938 11.2812C144.938 12.2448 145 13.0495 145.125 13.6953C145.255 14.3411 145.469 14.8255 145.766 15.1484C146.062 15.4661 146.458 15.625 146.953 15.625C147.448 15.625 147.844 15.4661 148.141 15.1484C148.438 14.8307 148.651 14.349 148.781 13.7031C148.917 13.0573 148.984 12.25 148.984 11.2812C148.984 10.3229 148.919 9.52083 148.789 8.875C148.659 8.22917 148.445 7.74479 148.148 7.42188C147.852 7.09375 147.453 6.92969 146.953 6.92969C146.453 6.92969 146.055 7.09375 145.758 7.42188C145.466 7.74479 145.255 8.22917 145.125 8.875C145 9.52083 144.938 10.3229 144.938 11.2812ZM155.977 12.6094C155.977 13.474 155.893 14.3177 155.727 15.1406C155.56 15.9635 155.302 16.7448 154.953 17.4844C154.609 18.224 154.167 18.9062 153.625 19.5312H152.047C152.536 18.8698 152.948 18.1615 153.281 17.4062C153.615 16.651 153.865 15.8672 154.031 15.0547C154.198 14.2422 154.281 13.4219 154.281 12.5938C154.281 11.75 154.195 10.9167 154.023 10.0938C153.857 9.27083 153.607 8.47917 153.273 7.71875C152.94 6.95312 152.526 6.23958 152.031 5.57812H153.625C154.167 6.21875 154.609 6.91667 154.953 7.67188C155.302 8.42708 155.56 9.22135 155.727 10.0547C155.893 10.8828 155.977 11.7344 155.977 12.6094Z" fill="#A9A9A9"/>
</svg>
